inDegrees=no
num_controls=7
num_derivatives=13
num_iterations=191
num_multipliers=7
num_parameters=0
num_slacks=7
num_states=26
objective=6.489167
objective_accelerations=0.748475
objective_balance=0.040520
objective_effort=0.564916
objective_height=5.090531
objective_ligament=0.044725
solver_duration=1681.836108
status=Solve_Succeeded
success=true
DataType=double
version=3
OpenSimVersion=4.4-2022-07-23-0e9fedc
endheader
time	/jointset/ground_pelvis/pelvis_tilt/value	/jointset/ground_pelvis/pelvis_tx/value	/jointset/ground_pelvis/pelvis_ty/value	/jointset/hip_r/hip_flexion_r/value	/jointset/hip_r/hip_adduction_r/value	/jointset/hip_r/hip_rotation_r/value	/jointset/back/lumbar_extension/value	/jointset/patellofemoral_r/patellar_flexion_r/value	/jointset/knee_r/knee_flexion_r/value	/jointset/knee_r/knee_adduction_r/value	/jointset/knee_r/knee_rotation_r/value	/jointset/ankle_r/ankle_angle_r/value	/jointset/subtalar_r/subtalar_angle_r/value	/jointset/ground_pelvis/pelvis_tilt/speed	/jointset/ground_pelvis/pelvis_tx/speed	/jointset/ground_pelvis/pelvis_ty/speed	/jointset/hip_r/hip_flexion_r/speed	/jointset/hip_r/hip_adduction_r/speed	/jointset/hip_r/hip_rotation_r/speed	/jointset/back/lumbar_extension/speed	/jointset/patellofemoral_r/patellar_flexion_r/speed	/jointset/knee_r/knee_flexion_r/speed	/jointset/knee_r/knee_adduction_r/speed	/jointset/knee_r/knee_rotation_r/speed	/jointset/ankle_r/ankle_angle_r/speed	/jointset/subtalar_r/subtalar_angle_r/speed	/forceset/tau_hip_flexion_r	/forceset/tau_hip_adduction_r	/forceset/tau_hip_rotation_r	/forceset/tau_knee_flexion_r	/forceset/tau_ankle_angle_r	/forceset/tau_subtalar_angle_r	/forceset/tau_lumbar_extension	lambda_cid13_p0	lambda_cid14_p0	lambda_cid14_p1	lambda_cid14_p2	lambda_cid14_p3	lambda_cid14_p4	lambda_cid14_p5	/jointset/ground_pelvis/pelvis_tilt/accel	/jointset/ground_pelvis/pelvis_tx/accel	/jointset/ground_pelvis/pelvis_ty/accel	/jointset/hip_r/hip_flexion_r/accel	/jointset/hip_r/hip_adduction_r/accel	/jointset/hip_r/hip_rotation_r/accel	/jointset/back/lumbar_extension/accel	/jointset/patellofemoral_r/patellar_flexion_r/accel	/jointset/knee_r/knee_flexion_r/accel	/jointset/knee_r/knee_adduction_r/accel	/jointset/knee_r/knee_rotation_r/accel	/jointset/ankle_r/ankle_angle_r/accel	/jointset/subtalar_r/subtalar_angle_r/accel	gamma_cid13_p0	gamma_cid14_p0	gamma_cid14_p1	gamma_cid14_p2	gamma_cid14_p3	gamma_cid14_p4	gamma_cid14_p5
1	-0.3323599221419741	-0.01905562487331487	0.6143405881713053	1.61245808569347	-0.2322143742499333	-0.07990917504458987	-0.4363318489795897	1.507993533157804	1.507993533157874	-0.1389016045811055	0.1727634002656347	0.4363323129985824	0.1110396023792596	-0.002009715734025235	0.002459180150812493	0.01541457584602131	-0.03868140072462194	0.00259498316897876	-0.01397662327409782	7.26011889732662e-05	-0.04522695691522539	-0.04522695691522259	-0.00555320205671106	-0.0006305420165057609	-0.004824909783199412	0.002828928939140947	-0.3117299624879289	0.003964634092177435	0.002913439080655832	-0.5305001463173893	0.01514275692160498	0.01386049366978012	0.3200747410499805	-0.04316711282867527	-45.31486383271591	-2.737707593643324	1.836515495903832	20.36196315090482	-822.0616976139652	70.2059947983518	1.209685016055007	-0.0008538686357408037	2.104327556201183	-6.095231255811375	0.1853739512065933	-0.2516395206577609	-0.005418878827587124	-5.936947542517246	-5.93694754251724	1.123128002506609	0.0796452560090422	-1.240240373361211	-0.174443584340074	6.144596004396932e-09	1.164352489401222e-08	3.338356901289955e-08	4.442228488722279e-08	-7.12400750579554e-09	-7.060199012025967e-09	7.592383209205838e-08
1.01	-0.332320048393868	-0.01903113866415161	0.6145997559892822	1.61176747811787	-0.232179135506411	-0.08005861688701973	-0.4363310100148272	1.507244820708662	1.507244820708661	-0.1388981675367645	0.1727605664553259	0.4362218717983661	0.111059060511968	0.009988499234509878	0.002434157234291084	0.03641044156741501	-0.09941685733420987	0.004453999849579207	-0.01590945120036012	7.004606034635607e-05	-0.1045082380947349	-0.1045082380947346	0.006240372721257991	6.163484754678678e-05	-0.01728528769089855	0.001056094935446565	-0.3113659157671928	0.003981707826104699	0.002959976320134893	-0.5301127400542572	0.01508589738512559	0.01387011004901548	0.3197270966183374	-0.04318478489471592	-45.30750227448761	-2.729319026532067	1.831839334124241	20.42005221753627	-821.5973889202871	70.18622792197212	1.195498778609031	-0.003915999008100529	2.095931313946247	-6.059210475808881	0.1863644817569545	-0.1637524359331828	-0.001445685588050486	-5.922626658377609	-5.922626658377992	1.207434173980884	0.06370981017973168	-1.252090585956498	-0.1796698453638382	1.23151573028529e-08	2.504816869800853e-08	7.695346783818501e-08	1.010222581607789e-07	-1.902335170041478e-08	-1.412300535900682e-08	1.724085220259958e-07
1.02	-0.3321600706878055	-0.01900702058332312	0.6150686255112406	1.610470214453717	-0.2321252668050288	-0.08022731661017687	-0.4363309509724882	1.505903513797182	1.505903513797113	-0.1387768023529363	0.1727645955953724	0.4359861913746318	0.1110605969972435	0.02201107585729605	0.00238555448385777	0.0573549166423211	-0.1600126184348532	0.006320974740987517	-0.01782819941953122	-8.338329659318259e-05	-0.1637458493826369	-0.1637458493826391	0.01803242584078055	0.0007420480546541097	-0.02987182905788715	-0.0007554005474365529	-0.3110018690464613	0.00399878156003048	0.003006513559615633	-0.5297253337911251	0.01502903784864642	0.01387972642824838	0.3193794521866896	-0.04321284039651965	-45.30889876429423	-2.718520504281425	1.822274171903723	20.50610134321721	-821.2613033377671	70.19759042887209	1.214557346905221	-0.005569835418123942	2.094049426903661	-6.067292154022447	0.1869655933681667	-0.2488235792395184	-0.03559372449017172	-5.928213564195739	-5.928213564195739	1.122823670817311	0.07729252461999654	-1.265473065219107	-0.1821758801778219	1.813421291752397e-08	3.50490180045116e-08	1.180813257936687e-07	1.55402963623282e-07	-2.408866227277301e-08	-2.109027534703246e-08	2.612981985675467e-07
1.03	-0.3318798272843165	-0.01898334919690701	0.6157466284417314	1.608567729920937	-0.2320527355917792	-0.08041523431829307	-0.4363323129985824	1.503970169678785	1.503970169678733	-0.1385376009018219	0.1727753842640497	0.4356241754879733	0.1110438136490528	0.03403299554085929	0.002360528581116386	0.07823173766550019	-0.2204571283172899	0.008181689737597812	-0.01975629582496489	-0.0001295110938546874	-0.2229037054125119	-0.222903705412509	0.02980709893621628	0.001414317858039775	-0.04253632038883253	-0.002609347073969987	-0.3110417587908975	0.004022661320431665	0.003125876368793429	-0.5289324483920814	0.01494628062449572	0.01388176309544449	0.3195111692062506	-0.04323690207768039	-45.31078543085953	-2.708583414176441	1.809972615563793	20.39401558509664	-820.9552201622848	70.16441343433827	1.195326001891992	0.0007960524319813267	2.082403017939632	-6.028948650227167	0.1851170089036518	-0.1649298279891178	0.02005657904540457	-5.906686114941986	-5.906686114941205	1.204670146281414	0.06204636420661273	-1.267682798224632	-0.1881660054536606	2.394968173950336e-08	4.501513471410144e-08	1.591842649647667e-07	2.097610234958764e-07	-2.908423780816936e-08	-2.805657047425244e-08	3.501103749724405e-07
1.04	-0.3314795013394302	-0.01895957506549149	0.6166329804980369	1.606061616640358	-0.2319616987173444	-0.08062245842182243	-0.4363323129985824	1.501445824101578	1.501445824101543	-0.1381806765162781	0.1727928660619623	0.4351353655617668	0.1110082584422843	0.04602758413682778	0.002406103483739088	0.09902474180526449	-0.2807383679946416	0.01002210697805611	-0.02168947850215165	0.0001915165644665933	-0.2819461411447312	-0.2819461411447229	0.04157701272664065	0.002080673901775841	-0.05523063696747319	-0.004509772263005676	-0.3110816485353293	0.004046541080832201	0.003245239177970154	-0.5281395629930375	0.01486352340034421	0.0138837997626392	0.3196428862258158	-0.043271439563139	-45.32156108356128	-2.696279952958716	1.792812601471263	20.31039529813961	-820.7792201653555	70.16214369805904	1.209091129386271	0.008550325654691387	2.077286050220706	-6.034638113005429	0.1829060421377685	-0.2498408335901351	0.03783736662643	-5.905129504664564	-5.905129504664554	1.121871809815042	0.076109772690076	-1.271438114758167	-0.1914716126782733	2.893646961906408e-08	5.313193620824926e-08	1.957766226179306e-07	2.573393852791674e-07	-3.240967335144424e-08	-3.456941450533061e-08	4.262250442302971e-07
1.05	-0.3309596985849653	-0.01893483072693996	0.6177267810186922	1.602953756220412	-0.2318523959381021	-0.08084919988590279	-0.4363260151257971	1.498331690951728	1.498331690951649	-0.1377062115881042	0.1728169847807585	0.4345196055320089	0.1109534672222909	0.05789380252472419	0.002570821854781479	0.1197151504259128	-0.3407808406506795	0.01183065329907779	-0.02366310541827753	0.001257247684044156	-0.3408552376103725	-0.3408552376103778	0.053315506065883	0.002741963610787242	-0.06791227021063975	-0.00645771830673785	-0.3116567173698994	0.004089564211185677	0.003435242611539234	-0.5269605227298401	0.01469769918225363	0.01388150335770998	0.3203939049441153	-0.04330325612110661	-45.35822823828435	-2.687973032472006	1.773527424550081	20.02995184830639	-820.7633431034474	70.11568616000186	1.169524325944499	0.02463406740989243	2.06187820374577	-5.981109317249698	0.17870252921747	-0.1717447157485094	0.1691891106234784	-5.880018864852277	-5.880018864854344	1.199762937700634	0.0610556808693992	-1.26516165557785	-0.1977705816792339	3.389736121917421e-08	6.119094660191453e-08	2.322280245986592e-07	3.047058814971677e-07	-3.568291701996534e-08	-4.106808818965435e-08	5.01942916389809e-07
1.06	-0.330322406220131	-0.01890759890976184	0.6190268776127056	1.599247059578838	-0.2317252329752229	-0.08109580183816907	-0.436303405972358	1.494629223007753	1.494629223007629	-0.1371143767581933	0.1728476998188176	0.433777302024523	0.1108789336455684	0.06952550621074807	0.002903599209058137	0.1402839564769168	-0.4005056123205862	0.01359414370542367	-0.02566157613939114	0.003452903843624149	-0.3996130999695487	-0.3996130999695689	0.0650509930739976	0.003399937754307647	-0.08053933251308446	-0.008458243608811753	-0.3122317862044596	0.004132587341539737	0.003625246045105168	-0.5257814824666425	0.01453187496416182	0.01387920695278133	0.3211449236624246	-0.04334575222330989	-45.40395321164026	-2.677362139806023	1.749431249604732	19.77706245441126	-820.8812306276311	70.09955732625006	1.162188189011765	0.04216212230154303	2.052965536291859	-5.971097915779156	0.17389485920261	-0.254809594587679	0.2638223746269121	-5.874882683371559	-5.874882683371803	1.121270543589492	0.07544665959187608	-1.260523926613799	-0.2019874643466197	3.781646355652392e-08	6.954091087148292e-08	2.619664996308797e-07	3.439127258573846e-07	-4.267825056628928e-08	-4.583846515151272e-08	5.622924951295626e-07
1.07	-0.329569860565999	-0.01887618621718096	0.6205319614411966	1.594944828169516	-0.2315806676528439	-0.08136269558555652	-0.436253423957734	1.490340081411142	1.490340081411015	-0.1364054153654625	0.17288495215587	0.4329089142370101	0.110784092843018	0.08095260420690872	0.003408342059458003	0.1607030736372553	-0.459873026174783	0.01531053020582707	-0.0277221351722449	0.006712199242534189	-0.4581746749132832	-0.4581746749132728	0.07673722689149108	0.004044956534763786	-0.09313757279357707	-0.01052311059886632	-0.3123126624242273	0.004093445615371658	0.003884434510819054	-0.5243393934848858	0.0146793131019214	0.01386398968035185	0.3214863861459137	-0.04339639798915929	-45.31439022636225	-2.643315007215596	1.715476926363724	19.43409660491677	-820.4306839668786	70.09162154411354	1.128331853717194	0.05903070321886075	2.031914298757175	-5.909402918921272	0.169305930268833	-0.1823950497032737	0.3822881467222358	-5.840721624643682	-5.840721624638936	1.191685358931818	0.05829738649878711	-1.259376763734865	-0.2106244569057454	4.168015157138636e-08	7.790635141104615e-08	2.913479040807327e-07	3.826855461826129e-07	-4.987156761675168e-08	-5.051691143664421e-08	6.218246114533716e-07
1.08	-0.3287039716821457	-0.01883884602873416	0.6222403423398616	1.590050954661917	-0.231419179388499	-0.08165033812168576	-0.4361657879842808	1.48546653872014	1.48546653872001	-0.1355797145229367	0.1729285082605727	0.4319145635096987	0.1106682257424528	0.09219415215502885	0.004089098382242757	0.1809433705116865	-0.5188340319762333	0.01697873209861558	-0.02981133388786061	0.01098369560941179	-0.5164933188477897	-0.5164933188477474	0.08839888303308635	0.00466069128427198	-0.1057319204727847	-0.01266350321175561	-0.3123935386439931	0.00405430388920415	0.004143622976533325	-0.5228973045031291	0.01482675123968087	0.01384877240792329	0.3218278486294047	-0.04345780895148067	-45.2339994956755	-2.607132695563567	1.676908429860158	19.11682391298402	-820.1172910828956	70.112874920389	1.125078179403663	0.07736481677851882	2.017201479110395	-5.889816305229855	0.1642579376796336	-0.2605375311400672	0.4662625682204239	-5.826296481525973	-5.826296481525965	1.116355008409847	0.06958985340228649	-1.259745406356798	-0.2170925889135636	4.420483047518825e-08	8.318458687273814e-08	3.120731401737437e-07	4.09928702715929e-07	-5.422985243469135e-08	-5.418829798794889e-08	6.597867003631431e-07
